<svg width="1920" height="374" viewBox="0 0 1920 374" fill="none" xmlns="http://www.w3.org/2000/svg">
<g clip-path="url(#clip0_505_822)">
<path d="M-27.342 315.184C-18.6832 312.15 -10.0177 309.221 -1.5007 305.798C6.87822 302.407 14.8716 298.135 22.3466 293.054C36.5745 283.345 49.1606 271.126 64.6827 263.327C72.4206 259.233 80.9651 256.887 89.7212 256.451C89.8647 256.462 90.0017 256.516 90.1131 256.608C90.2246 256.7 90.3051 256.824 90.3432 256.963C90.3813 257.103 90.3753 257.25 90.3259 257.385C90.2765 257.521 90.1863 257.637 90.0678 257.718L67.4359 268.571C59.893 272.206 52.5112 276.026 44.8792 279.602C43.8079 280.22 42.769 278.468 43.9088 277.921C51.4397 274.265 59.0971 270.923 66.7051 267.305L89.3969 256.556C89.6005 256.908 89.6187 257.368 89.7314 257.801C73.0151 258.156 58.5026 267.752 46.0616 278.034C39.2021 283.71 32.5483 289.599 25.307 294.803C18.0929 299.9 10.3205 304.156 2.13904 307.487C-7.30569 311.297 -16.9677 314.547 -26.7975 317.222C-28.0452 317.582 -28.5178 315.669 -27.3061 315.247L-27.342 315.184Z" fill="black" fill-opacity="0.1"/>
<path d="M-25.6704 314.607C-11.4788 312.638 0.525808 302.885 15.295 303.821C22.4401 304.557 29.4711 306.185 36.2243 308.669C43.3152 311.008 50.2675 313.756 57.0462 316.9C64.6577 320.509 72.0614 324.548 79.2214 328.998C79.3889 329.099 79.5195 329.252 79.594 329.433C79.6684 329.615 79.6827 329.815 79.6346 330.005C79.5865 330.194 79.4787 330.362 79.3271 330.485C79.1756 330.607 78.9885 330.677 78.7936 330.684C71.2078 330.581 63.416 330.598 56.6071 326.893C49.7982 323.188 44.8802 316.62 38.0885 312.85C37.9051 312.747 37.7696 312.575 37.7118 312.372C37.654 312.169 37.6787 311.952 37.7804 311.769C37.8821 311.585 38.0525 311.45 38.2541 311.394C38.4558 311.337 38.6721 311.363 38.8555 311.466C45.3712 315.092 50.5703 320.528 56.9658 324.278C63.3612 328.029 71.327 328.742 78.8749 328.921C78.7284 329.476 78.5612 330.043 78.4267 330.619C72.1919 326.848 65.7294 323.473 59.0775 320.514C52.329 317.403 45.4108 314.681 38.3568 312.363C31.6363 309.938 24.7081 308.149 17.6632 307.018C10.6768 306.243 3.61731 307.143 -2.93492 309.642C-10.291 312.174 -17.5316 315.524 -25.3909 315.995C-26.1561 316.049 -26.3431 314.774 -25.5812 314.666L-25.6704 314.607Z" fill="black" fill-opacity="0.1"/>
<path d="M7.1673 303.588C13.4136 305.318 19.7804 306.563 26.2111 307.312C32.1796 307.854 38.1902 307.395 43.9959 305.953C54.7711 303.301 64.7862 298.238 75.5341 295.491C81.3758 293.871 87.4863 293.427 93.5143 294.185L93.0282 295.96C77.4771 291.79 60.9797 293.445 46.6278 300.615C42.5519 302.64 38.7319 305.143 35.2474 308.071C35.1344 308.191 34.9969 308.285 34.8441 308.346C34.6913 308.407 34.5269 308.435 34.3622 308.426C34.1976 308.418 34.0364 308.373 33.8899 308.297C33.7434 308.22 33.6149 308.113 33.5133 307.982C33.4116 307.851 33.3393 307.699 33.3012 307.538C33.263 307.377 33.26 307.21 33.2923 307.048C33.3246 306.886 33.3915 306.733 33.4883 306.599C33.5852 306.466 33.7097 306.356 33.8534 306.275C46.9337 296.192 63.1791 291.106 79.7077 291.92C84.3587 292.173 88.9738 292.911 93.4784 294.123C94.6513 294.442 94.1345 296.068 92.9922 295.898C81.715 294.302 70.821 298.461 60.4781 302.386C50.1351 306.31 39.2005 310.16 27.7062 309.188C20.62 308.372 13.6161 306.925 6.77785 304.864C5.9101 304.646 6.26361 303.308 7.13136 303.526L7.1673 303.588Z" fill="black" fill-opacity="0.1"/>
<path d="M-26.7484 315.118C-21.8031 313.824 -16.6233 313.671 -11.5965 314.671C-6.34076 315.557 -1.16742 316.893 3.86673 318.663C15.2405 322.472 26.8048 326.088 37.8049 330.914C43.6263 333.279 49.0962 336.443 54.0568 340.317C54.6188 340.767 53.8355 341.552 53.294 341.09C48.8883 337.66 44.0183 334.881 38.8333 332.838C33.6828 330.721 28.2861 329.272 23.0168 327.472L5.87504 321.571C1.07238 319.852 -3.82643 318.421 -8.79524 317.286C-11.6597 316.645 -14.574 316.263 -17.5032 316.144C-20.4153 316.132 -23.3217 316.366 -26.1915 316.844C-26.4052 316.875 -26.6233 316.826 -26.8042 316.706C-26.9852 316.587 -27.1165 316.405 -27.1731 316.195C-27.2298 315.985 -27.2079 315.762 -27.1115 315.569C-27.0152 315.375 -26.8512 315.224 -26.6506 315.145L-26.7484 315.118Z" fill="black" fill-opacity="0.1"/>
</g>
<g clip-path="url(#clip1_505_822)">
<path d="M1825.47 302.979C1826.74 299.637 1828.73 296.616 1831.3 294.13C1833.87 291.644 1836.96 289.753 1840.34 288.59C1842.59 287.812 1844.73 286.626 1846.91 285.641C1844.91 284.708 1842.75 284.185 1840.55 284.104C1835.34 283.918 1830.41 281.696 1826.82 277.914C1826.12 276.855 1825.65 275.66 1825.44 274.407C1825.23 273.154 1825.29 271.872 1825.62 270.645C1826.27 268.258 1829.09 269.332 1830.89 270.082C1836.71 272.401 1843.1 274.072 1848.1 277.633C1854.66 282.381 1861.81 282.371 1869.04 283.279C1857.52 278.245 1847.85 269.733 1841.39 258.934C1839.93 256.403 1838.32 256.441 1836.02 257.443C1830.56 259.78 1824.4 259.864 1818.87 257.677C1813.34 255.491 1808.9 251.209 1806.5 245.764C1805.97 244.584 1805.73 242.51 1806.41 241.796C1807 241.415 1807.66 241.161 1808.35 241.049C1809.04 240.936 1809.74 240.969 1810.42 241.145C1814.16 241.837 1817.85 242.83 1821.56 243.716L1822.25 243.791L1821.64 243.423C1821.03 242.635 1820.35 241.897 1819.62 241.214C1814.76 236.88 1811.28 231.211 1809.62 224.914C1809.43 223.469 1809.49 222.003 1809.81 220.582C1811.02 220.732 1812.4 220.506 1813.38 221.006C1820.19 224.205 1826.18 228.929 1830.88 234.812C1829.9 230.633 1829.22 226.386 1828.87 222.107C1828.8 215.713 1826.76 209.494 1823.02 204.3C1821 200.682 1819.17 196.963 1817.53 193.158C1817.02 192.283 1815.51 191.122 1814.77 191.301C1800.44 194.816 1789.14 186.53 1776.98 181.594C1774.4 180.602 1774.48 178.077 1777.08 176.701C1779.23 175.507 1781.6 174.754 1784.04 174.488C1793.62 173.891 1803.16 176.07 1811.54 180.765C1809.84 175.642 1807.95 171.078 1806.83 166.344C1805.34 159.987 1804.85 153.522 1807.96 147.382C1809.42 144.534 1811.61 143.789 1813.41 145.798C1815.71 148.186 1817.64 150.902 1819.13 153.858C1821.09 158.106 1822.17 162.702 1822.31 167.374C1822.46 172.046 1821.66 176.698 1819.98 181.054C1819.17 183.042 1818.9 185.208 1819.19 187.334C1820.73 194.006 1823.62 200.291 1827.7 205.793C1828.9 198.871 1829.91 192.462 1831.24 186.187C1833.76 174.802 1837.98 163.863 1843.75 153.735C1844.49 152.643 1844.88 151.35 1844.86 150.029C1844.84 148.709 1844.42 147.425 1843.65 146.352C1841.57 143.137 1839.81 139.71 1837.79 136.463C1832.92 128.536 1827.59 121.194 1817.06 120.722C1816.73 120.687 1816.4 120.599 1816.1 120.462C1809.56 118.343 1804.06 113.845 1800.67 107.859C1799.17 105.255 1800.29 103.341 1803.25 103.098C1804.24 103.129 1805.22 103.277 1806.18 103.54C1813.97 105.117 1821.38 107.535 1826.98 112.889C1827.3 108.623 1827.88 104.383 1828.73 100.191C1829.17 98.501 1831.57 97.3388 1833.09 95.9402C1834.51 97.1349 1835.71 98.5802 1836.62 100.205C1838.98 107.723 1839.24 115.163 1834.76 122.212C1834.46 122.849 1834.32 123.547 1834.34 124.251C1834.36 124.955 1834.54 125.644 1834.87 126.265C1838.68 132.523 1842.71 138.634 1846.75 144.735C1846.93 145.051 1848.62 144.922 1848.71 144.695C1850.81 138.769 1853.76 132.947 1854.57 126.847C1856.04 115.533 1850.11 106.899 1842.03 99.5853C1830.46 89.1209 1808.83 82.6595 1793.8 93.6432C1792.08 94.8061 1790.74 96.4431 1789.94 98.3559C1788.48 102.045 1786.44 105.471 1783.88 108.499C1779.17 113.334 1774.2 117.916 1769 122.226C1767.89 123.216 1765.75 124.401 1764.85 123.954C1764.11 123.479 1763.49 122.86 1763 122.135C1762.51 121.41 1762.18 120.593 1762.01 119.735C1761.59 117.018 1761.77 114.243 1762.54 111.606C1763.32 108.969 1764.66 106.536 1766.48 104.481C1770.21 99.6994 1775.56 97.4769 1780.88 95.1027L1781.12 94.9633L1780.88 95.1027L1774.91 95.1967C1771.01 95.3166 1767.13 94.5129 1763.58 92.8508C1760.04 91.1887 1756.94 88.715 1754.53 85.6305C1750.94 81.1293 1752.38 78.1196 1758.04 77.7737C1762.21 77.4249 1766.4 77.4987 1770.55 77.9937C1778.67 79.1862 1786.13 81.8993 1789.77 90.265C1790.62 92.2541 1791.71 91.4297 1792.87 90.7356C1805.24 83.296 1817.98 83.5312 1830.97 88.9272C1833.31 89.8854 1835.63 90.9022 1837.94 91.9004C1837.56 91.2405 1837.09 90.6341 1836.55 90.0971C1827.56 82.8858 1818.75 75.1438 1806.9 72.6628C1797.83 70.776 1791.96 64.4188 1786.85 57.3716C1785.9 56.062 1786.44 53.6629 1786.29 51.7671C1787.86 51.6295 1789.44 51.6908 1791 51.9494C1800.36 54.6191 1809.03 59.299 1816.4 65.6627C1816.24 63.6231 1816.03 61.8074 1815.94 59.9753C1815.48 54.6162 1817.05 49.284 1820.34 45.033C1823.51 40.9968 1827.27 41.2067 1828.56 45.7191C1830.16 51.2644 1831.16 56.9661 1831.54 62.7248C1831.74 64.9887 1831.37 67.2647 1830.47 69.3484C1829.56 71.432 1828.16 73.2581 1826.38 74.6628C1823.76 76.6461 1824.49 77.2667 1826.67 78.5131C1828.72 79.6051 1830.64 80.9277 1832.39 82.4551C1836.42 86.0819 1840.23 89.9417 1843.81 94.0148C1846.46 97.4987 1848.89 101.143 1851.08 104.927C1851.66 102.332 1851.93 99.6775 1851.89 97.0185C1852.7 86.9264 1857.09 83.2985 1863.78 81.0737C1867.48 79.8535 1868.73 81.0687 1868.44 84.8572C1867.48 94.5158 1864.98 103.525 1856.96 109.917C1855.76 110.883 1855.34 111.399 1856.04 113.05C1857.63 116.551 1858.48 120.341 1858.54 124.183C1858.6 128.026 1857.86 131.837 1856.38 135.379C1853.18 143.179 1849.45 150.789 1845.7 158.391C1841.63 166.05 1838.68 174.257 1836.96 182.759C1839.74 181.362 1842.32 179.598 1844.63 177.513C1850.74 171.724 1856.39 165.415 1862.8 159.974C1864.6 158.684 1865.96 156.868 1866.68 154.775C1867.41 152.682 1867.47 150.415 1866.85 148.285C1865.82 143.265 1865.27 138.16 1865.2 133.038C1865.25 130.202 1865.86 127.404 1867 124.807C1868.14 122.21 1869.77 119.864 1871.82 117.906C1874.5 115.169 1876.85 115.722 1878.19 119.193C1878.5 120.135 1878.74 121.103 1878.89 122.085C1880.63 131.346 1879.64 140.909 1876.06 149.615L1881.13 147.929C1887.11 145.967 1893.12 144.851 1899 147.908C1899.83 148.292 1900.58 148.851 1901.18 149.547C1901.78 150.243 1902.23 151.06 1902.49 151.943C1902.3 152.871 1901.91 153.745 1901.34 154.502C1900.77 155.259 1900.04 155.881 1899.2 156.323C1895.29 158.517 1890.98 159.91 1886.52 160.422C1882.07 160.935 1877.55 160.555 1873.24 159.307C1871.93 158.82 1870.51 158.741 1869.16 159.079C1867.81 159.416 1866.59 160.156 1865.67 161.199C1859.85 167.038 1854.03 172.876 1848.06 178.579C1844.97 181.505 1842.05 184.709 1837.41 185.522C1836.76 185.788 1836.19 186.21 1835.74 186.75C1835.29 187.29 1834.99 187.931 1834.84 188.619C1833.9 197.843 1832.38 207.131 1832.67 216.34C1833.02 233.056 1838.67 249.237 1848.82 262.534C1852.38 267.248 1860.34 273.915 1864.63 275.257C1863.77 272.999 1862.78 270.547 1861.91 268.049C1860.87 264.254 1858.45 260.987 1855.11 258.899C1850.79 256.313 1847.43 252.373 1845.57 247.689C1843.83 243.434 1843.06 239.045 1845.24 234.711C1847.3 230.74 1850.16 230.378 1852.03 234.308C1854.29 239.089 1856.25 244.009 1857.89 249.036C1858.94 252.053 1859.45 255.255 1860.2 258.366L1861.28 258.215C1861.21 256.468 1861.22 254.727 1861.09 252.993C1860.39 243.674 1865.16 239.283 1872.17 235.259C1873.88 234.272 1875.86 234.02 1875.75 237.163C1875.65 246.568 1874.24 255.397 1865.8 261.411C1865.27 261.844 1864.84 262.392 1864.55 263.014C1864.27 263.636 1864.12 264.316 1864.13 265.002C1865.82 274.994 1871.37 280.322 1881.31 281.878C1882.95 282.152 1884.61 282.273 1886.27 282.238C1913.44 281.434 1932.69 268.285 1944.4 244.135C1948.7 235.795 1950.25 226.304 1948.83 217.021C1948.03 212.248 1945.91 208.314 1941.41 206.57C1935.42 204.251 1929.15 202.487 1922.97 200.747C1921.86 200.418 1920.22 201.391 1919.04 202.096C1913.56 205.259 1908.42 208.999 1902.86 211.936C1897.3 214.873 1891.14 216.046 1885.36 212.118C1883.6 210.923 1880.73 209.458 1881.87 206.687C1883.02 205.025 1884.71 203.813 1886.65 203.257C1893.14 200.727 1899.71 198.471 1906.05 196.199C1903.09 193.422 1900.36 191.053 1897.92 188.495C1897.61 188.037 1897.41 187.512 1897.34 186.964C1897.28 186.416 1897.34 185.86 1897.53 185.343C1897.83 184.747 1899.49 184.438 1900.44 184.631C1908.8 186.252 1917.09 188.04 1922.26 195.921C1922.87 196.72 1923.71 197.301 1924.68 197.576C1931.14 199.55 1937.64 201.406 1944.27 203.379C1939.35 196.302 1934.01 189.461 1926.6 184.782C1921.41 181.501 1916.01 178.493 1909.69 178.002C1897.9 177.018 1887.48 180.753 1877.89 187.258C1877.55 187.562 1877.28 187.93 1877.09 188.342C1876.91 188.753 1876.8 189.199 1876.79 189.652C1876.72 196.265 1873.32 201.306 1869.28 206.02C1865.24 210.733 1861.43 214.942 1857.38 219.29C1856.31 220.18 1855.12 220.923 1853.85 221.501C1853 220.196 1852.37 218.757 1851.99 217.243C1851.48 209.185 1854.15 201.253 1859.41 195.147C1859.84 194.65 1860.34 194.216 1860.74 193.711C1861.14 193.207 1861.24 192.903 1861.07 193.172C1856.72 193.007 1852.29 193.01 1847.89 192.598C1847.29 192.422 1846.74 192.108 1846.29 191.68C1845.83 191.252 1845.49 190.723 1845.28 190.136C1845.05 189.447 1846.08 187.962 1846.95 187.41C1850 185.112 1853.33 183.193 1856.85 181.695C1862.34 179.84 1868.1 178.67 1873.31 183.104C1873.77 183.337 1874.27 183.465 1874.79 183.481C1875.3 183.497 1875.81 183.4 1876.29 183.197C1879.04 182.052 1881.69 180.626 1884.4 179.358C1894.39 174.754 1904.69 172.603 1915.65 175.378C1914.82 174.369 1914.02 173.368 1913.17 172.37C1910.72 169.761 1908.89 166.629 1907.82 163.211C1906.75 159.793 1906.47 156.177 1907 152.638C1907.49 149.655 1908.92 148.926 1910.85 150.716C1918.63 157.308 1923.83 166.447 1925.51 176.506C1925.61 177.661 1925.98 178.778 1926.59 179.766C1927.2 180.754 1928.03 181.586 1929.02 182.195C1938.11 188.852 1945.61 196.777 1949.68 207.648C1952.56 215.375 1953.5 223.683 1952.44 231.853C1954.79 226.278 1956.94 220.725 1958.71 215.04C1959.77 211.6 1961.73 207.414 1960.61 204.565C1959.66 202.015 1955.21 200.662 1952.21 198.945C1943.83 194.16 1939.48 187.097 1940.01 177.339C1940.13 174.965 1939.76 171.552 1942.78 171.2C1944.34 171.021 1946.65 173.356 1947.93 175.051C1951.94 180.421 1955.65 186.022 1959.69 191.872C1959.12 188.204 1959.8 184.451 1961.61 181.217C1963.43 177.983 1966.28 175.454 1969.7 174.038C1970.94 173.445 1973.19 172.667 1973.67 173.187C1974.56 174.429 1974.97 175.945 1974.85 177.465C1974.19 186.952 1970.33 195.378 1966.31 203.852C1964.07 208.545 1962.5 213.497 1960.6 218.285C1964.09 216.818 1966.62 214.936 1969.38 213.493C1972.06 211.987 1975.02 211.032 1978.07 210.686C1981.13 210.339 1984.23 210.607 1987.18 211.475C1987.76 211.694 1988.29 212.033 1988.73 212.469C1989.18 212.905 1989.53 213.428 1989.76 214.006C1989.98 214.695 1988.98 216.044 1988.2 216.763C1986.6 218.219 1984.88 219.549 1983.07 220.743C1977.53 224.391 1971.92 228.745 1964.92 227.9C1959.07 227.16 1956.52 229.1 1954.47 234.302C1952.67 238.815 1948.97 242.44 1946.91 246.93C1940.77 260.246 1930.54 271.241 1917.7 278.305C1902.24 286.659 1885.27 288.021 1868.06 286.676C1864.92 286.319 1861.81 285.771 1858.74 285.035C1856.42 284.586 1855.01 284.708 1854.13 287.694C1852.91 290.863 1851.12 293.781 1848.85 296.301C1843.28 302.74 1834.65 302.887 1827.42 305.894C1825.21 306.824 1824.52 305.114 1825.47 302.979ZM1823.49 248.085C1819.44 246.776 1815.2 245.998 1810.26 244.81C1814.53 253.581 1826.67 258.402 1835.04 255.183C1835.57 254.857 1836.03 254.438 1836.41 253.947C1835.96 253.493 1835.46 253.099 1834.91 252.776C1831.03 251.197 1827.32 249.397 1823.4 248.139L1823.49 248.085ZM1813.11 224.581C1816.51 235.396 1823.81 241.052 1832.93 246.034C1829.34 235.875 1822.36 229.911 1813.02 224.635L1813.11 224.581ZM1813.48 149.95C1812.92 149.212 1812.11 148.703 1811.2 148.518C1810.88 148.479 1810.12 149.659 1809.82 150.427C1807.51 157.568 1808.97 164.515 1811.33 171.311C1812.49 174.657 1814.09 177.853 1815.88 182.028C1821.02 170.13 1819.99 159.81 1813.4 150.022L1813.48 149.95ZM1826.89 117.407C1820.92 110.679 1813.24 107.498 1804 106.382C1804.92 108.501 1806.26 110.413 1807.93 112.005C1809.6 113.596 1811.58 114.835 1813.74 115.647C1817.53 117.249 1821.54 118.359 1825.47 119.588C1826.25 119.706 1827.04 119.701 1827.82 119.574C1827.57 118.805 1827.19 118.082 1826.71 117.437L1826.89 117.407ZM1834.78 115.129C1836.22 109.994 1835.7 104.504 1833.32 99.7268C1832.26 101.998 1831.47 104.386 1830.96 106.842C1830.9 109.646 1831.16 112.45 1831.75 115.194C1832.04 116.495 1832.42 117.774 1832.9 119.022C1833.59 117.794 1834.16 116.5 1834.6 115.159L1834.78 115.129ZM1768.88 107.042C1767.31 109.896 1766.08 112.915 1765.18 116.045C1764.85 117.133 1765.53 118.526 1765.74 119.793L1769.1 118.151C1775.12 112.964 1782 108.024 1785.99 100.235C1786.51 99.3992 1786.88 98.4871 1787.11 97.5327C1787.16 97.1543 1785.78 96.1686 1785.63 96.2544C1779.95 100.151 1772.44 100.866 1768.69 107.072L1768.88 107.042ZM1778.26 83.3187C1771.91 80.511 1765.09 80.5016 1758.29 80.8091C1757.52 80.9656 1756.79 81.2463 1756.12 81.6401C1756.34 82.5114 1756.7 83.3412 1757.19 84.0972C1760.87 88.436 1766.11 91.1496 1771.78 91.65C1775.67 91.8806 1779.7 91.6127 1783.64 91.8697C1787.58 92.1268 1786.73 90.705 1785.57 88.0512C1783.21 86.2681 1780.71 84.6946 1778.08 83.3486L1778.26 83.3187ZM1815.19 70.0832C1811.63 66.9199 1807.88 63.9712 1803.97 61.2528C1800.24 59.0838 1796.36 57.1793 1792.36 55.5533C1791.59 55.3411 1790.79 55.2366 1789.98 55.2425L1790.34 57.7129C1794.03 62.7377 1799.1 66.5845 1804.93 68.7867C1807.96 69.7424 1810.89 70.7809 1813.89 71.7287C1814.35 71.8039 1814.82 71.8147 1815.29 71.7607C1815.27 71.2042 1815.38 70.3701 1815.05 70.0917L1815.19 70.0832ZM1823.17 73.0926C1825.24 71.037 1826.89 68.5919 1828.03 65.8967C1829.94 59.6065 1827.56 53.5133 1826.04 47.4942C1825.15 45.2576 1823.57 45.4765 1822.8 47.0615C1821.02 50.0126 1819.85 53.2863 1819.35 56.6946C1819.45 61.8046 1819.91 66.9017 1820.72 71.9484C1820.74 73.9006 1821.86 74.4691 1823.02 73.1011L1823.17 73.0926ZM1838.16 92.118C1838.3 92.3599 1838.57 92.5267 1838.79 92.7256C1838.72 92.614 1838.79 92.398 1838.75 92.3715C1838.56 92.2733 1838.37 92.1886 1838.16 92.118ZM1856.93 106.09C1860.74 101.705 1863.36 96.4019 1864.51 90.6994C1864.69 89.8927 1864.81 89.0716 1864.85 88.2451C1864.92 86.8652 1864.87 85.5017 1864.93 84.1031L1859.66 85.1374C1857.91 88.0638 1856.47 91.1712 1855.38 94.4061C1854.83 97.9988 1854.66 101.64 1854.87 105.27C1854.93 105.846 1855.09 106.409 1855.33 106.935C1855.92 106.761 1856.46 106.474 1856.93 106.09ZM1896.7 153.97C1897.5 153.441 1898.27 152.859 1898.99 152.228C1898.09 151.56 1897.19 150.343 1896.28 150.32C1892.06 150.075 1887.82 150.252 1883.64 150.849C1880.04 151.922 1876.56 153.333 1873.24 155.064L1873.69 156.221C1881.49 157.172 1889.31 158.113 1896.68 153.933L1896.7 153.97ZM1874.12 145.776C1876.74 138.071 1877.28 129.81 1875.69 121.823C1875.22 120.754 1874.63 119.737 1873.94 118.79C1872.19 121.893 1870.59 125.083 1869.16 128.349C1867.04 134.035 1868.35 139.807 1869.33 145.493C1869.69 147.539 1870.29 149.524 1870.79 151.544C1872.08 149.731 1873.19 147.8 1874.12 145.776ZM1811.29 184.407C1803.68 179.635 1794.81 177.262 1785.84 177.595C1783.77 177.699 1781.73 178.079 1779.67 178.327C1789.12 183.144 1798.18 188.725 1809.09 188.954C1809.41 189 1809.75 188.983 1810.07 188.905C1811.69 188.27 1813.27 187.58 1814.86 186.908C1813.7 185.986 1812.5 185.126 1811.25 184.333L1811.29 184.407ZM1866.64 256.638C1868.66 254.484 1870.23 251.946 1871.25 249.174C1872.27 246.401 1872.73 243.45 1872.59 240.496C1872.6 240.246 1871.2 239.665 1870.73 239.885C1869.06 240.608 1867.61 241.752 1866.52 243.204C1865.43 244.657 1864.73 246.369 1864.5 248.173C1864.29 251.104 1864.27 254.045 1864.46 256.978C1865.47 256.842 1866.3 256.956 1866.69 256.731L1866.64 256.638ZM1901.37 201.509C1896.83 202.913 1892.38 204.64 1887.89 206.262C1887.16 206.564 1886.46 206.914 1885.78 207.312C1886.22 208.12 1886.82 208.836 1887.54 209.42C1889.75 210.546 1892.22 211.073 1894.7 210.948C1897.18 210.823 1899.58 210.05 1901.66 208.707C1907.04 205.8 1912.25 202.595 1917.6 199.507C1911.8 197.398 1906.61 199.87 1901.37 201.509ZM1903.39 187.545L1902.79 188.831C1906.66 192.652 1911.03 195.259 1916.69 194.895L1917.22 193.699L1903.39 187.545ZM1868.78 184.008C1863.18 182.407 1858.09 184.229 1852.45 186.689L1850.6 189.147C1851.68 189.438 1852.87 190.166 1853.86 189.944C1858.95 188.767 1864 187.39 1869.05 186.013C1869.49 185.795 1869.87 185.487 1870.18 185.108C1869.72 184.732 1869.31 184.15 1868.78 184.008ZM1868.64 191.53C1860.95 197.336 1854.98 204.973 1855.51 216.304C1862.04 209.181 1869.05 203.522 1872.63 195.055C1873.22 193.206 1873.63 191.308 1873.86 189.383C1872.03 189.855 1870.26 190.552 1868.6 191.456L1868.64 191.53ZM1910.2 154.016C1909.48 162.718 1913.2 169.251 1922.67 176.433C1920.57 167.961 1916.25 160.199 1910.16 153.942L1910.2 154.016ZM1967.75 193.424C1969.41 188.592 1970.73 183.617 1972.11 178.677C1972.17 177.881 1972.11 177.079 1971.92 176.302L1970.03 176.799C1964.64 180.88 1961.97 185.868 1962.91 192.422C1963.26 194.97 1963.78 197.498 1964.24 200.04C1965.6 197.943 1966.77 195.729 1967.75 193.424ZM1945.45 176.853C1944.93 176.373 1944.38 175.927 1943.81 175.516C1943.5 176.086 1943.28 176.699 1943.15 177.335C1943.01 183.741 1944.57 189.488 1950.01 193.495C1952.55 195.327 1955.23 196.928 1958.54 199.089C1956.16 190.646 1951.65 182.955 1945.44 176.757L1945.45 176.853ZM1962.35 225.166C1968.65 225.966 1973.86 223.137 1978.79 219.765C1981.08 218.446 1983.36 217.127 1985.65 215.808C1986.02 215.53 1986.36 215.203 1986.64 214.835C1986.17 214.54 1985.65 214.302 1985.12 214.127C1980.58 213.053 1975.81 213.813 1971.83 216.243C1968.27 218.302 1964.89 220.648 1961.46 222.9C1960.97 223.335 1960.53 223.83 1960.16 224.373C1960.86 224.692 1961.59 224.926 1962.34 225.07L1962.35 225.166ZM1856.21 253.283C1854.33 248.237 1852.48 243.181 1850.52 238.16C1850.05 237.366 1849.47 236.651 1848.78 236.041C1848.18 236.938 1847.73 237.926 1847.44 238.967C1846.84 245.516 1850.3 250.045 1854.71 254.045L1856.21 253.283ZM1829.15 272.725C1828.69 273.172 1828.36 273.724 1828.17 274.332C1830.07 276.038 1831.85 278.481 1834.11 279.136C1838.65 280.234 1843.25 281.041 1847.89 281.552C1842.83 276.089 1835.82 274.724 1829.11 272.746L1829.15 272.725ZM1848.71 281.599L1848.31 281.633L1848.38 281.763C1848.38 281.763 1848.6 281.663 1848.67 281.621L1848.71 281.599ZM1850.57 287.396C1843.53 291.806 1834.45 292.383 1830.07 300.792C1840.66 300.087 1848.4 295.096 1850.53 287.417L1850.57 287.396Z" fill="black" fill-opacity="0.1"/>
</g>
<defs>
<clipPath id="clip0_505_822">
<rect width="132.34" height="66.6102" fill="white" transform="matrix(-0.866025 0.5 0.5 0.866025 86.164 249.624)"/>
</clipPath>
<clipPath id="clip1_505_822">
<rect width="195" height="262" fill="white" transform="matrix(-0.866025 0.5 0.5 0.866025 1874.44 0.800781)"/>
</clipPath>
</defs>
</svg>
